<svg width="75" height="140" viewBox="0 0 75 140" fill="none" xmlns="http://www.w3.org/2000/svg">
<path d="M36.9215 50.0854C51.2628 36.1615 58.0769 27.2433 63.1638 5.77295" stroke="black" stroke-width="4" stroke-linecap="round" stroke-linejoin="round"/>
<path fill-rule="evenodd" clip-rule="evenodd" d="M0.374149 58L17.585 35H56.8932L74.104 58H74.2391V58.1805L74.4782 58.5L74.2391 58.5004V132H0.239094V58.5004L0 58.5L0.239094 58.1805V58H0.374149ZM36.7391 54C38.6721 54 40.2391 52.433 40.2391 50.5C40.2391 48.567 38.6721 47 36.7391 47C34.8061 47 33.2391 48.567 33.2391 50.5C33.2391 52.433 34.8061 54 36.7391 54Z" fill="#A1BE61"/>
<path d="M8.91095 77.3203C9.97866 77.388 10.9604 77.5312 11.8563 77.75L11.2469 83.0469C10.8563 83.1042 10.4656 83.1328 10.075 83.1328C9.6896 83.1328 9.28855 83.1068 8.87189 83.0547C8.45522 83.0078 8.0672 82.9479 7.70782 82.875C6.97866 82.7292 6.50991 82.599 6.30157 82.4844C6.09845 82.3698 5.95522 82.2682 5.87189 82.1797C5.79376 82.0859 5.73387 81.9427 5.6922 81.75C5.65053 81.5521 5.60626 81.3177 5.55939 81.0469C5.51251 80.7708 5.47085 80.4714 5.43439 80.1484C5.35105 79.4089 5.30939 78.8125 5.30939 78.3594C5.30939 77.901 5.31199 77.5495 5.3172 77.3047C5.32241 77.0547 5.33282 76.8099 5.34845 76.5703C5.40053 75.6068 5.46303 75.013 5.53595 74.7891C5.60887 74.5651 5.67657 74.3932 5.73907 74.2734C5.80157 74.1484 5.89012 74.0521 6.0047 73.9844C6.44741 73.7292 7.25991 73.4557 8.4422 73.1641L9.26251 72.9688C9.97605 72.8021 10.6271 72.6745 11.2156 72.5859L11.6297 74.4688C11.4787 74.5 11.2859 74.5365 11.0516 74.5781L9.45001 74.8438C8.42918 75.0104 7.78595 75.138 7.52032 75.2266C7.36928 75.8203 7.29376 76.6797 7.29376 77.8047C7.29376 79.2891 7.38491 80.3854 7.5672 81.0938C8.18178 81.3177 8.8146 81.4297 9.46564 81.4297H9.61407C9.66095 81.4297 9.70262 81.4245 9.73907 81.4141L9.96564 79.0625L8.71564 79L8.91095 77.3203ZM28.5188 83.5625C26.3729 83.3438 24.6906 83.0182 23.4719 82.5859C23.2479 82.5026 23.0995 82.0234 23.0266 81.1484C22.9641 80.3464 23.0318 79.651 23.2297 79.0625C23.313 78.8177 23.412 78.6823 23.5266 78.6562C24.0162 78.526 24.5318 78.4323 25.0735 78.375L26.6985 78.1953L26.6672 77.0938C26.0995 76.9844 25.5344 76.8984 24.9719 76.8359C24.4146 76.7682 23.8599 76.6901 23.3078 76.6016L23.7219 74.8906L25.0422 75.0859C26.2505 75.263 27.2115 75.4792 27.925 75.7344C28.2688 75.8594 28.4406 76.112 28.4406 76.4922L28.4719 80.7734L26.8078 80.9375L26.761 79.6016L26.3156 79.6875C25.8156 79.7708 25.3391 79.875 24.886 80C24.8287 80.276 24.8 80.5052 24.8 80.6875C24.8 80.9531 24.8104 81.1589 24.8313 81.3047C25.5656 81.4714 26.6985 81.6406 28.2297 81.8125L28.8703 81.8828L28.5188 83.5625ZM40.025 75.5312L41.6891 75.3203L41.9625 76.5078L43.3375 75.3203H44.8844C45.0667 75.3203 45.2568 75.4219 45.4547 75.625C45.7568 75.9219 45.9261 76.2083 45.9625 76.4844L47.3063 75.3203H49.1891C49.2568 75.3203 49.3818 75.3906 49.5641 75.5312C49.7516 75.6719 49.8792 75.7891 49.9469 75.8828C50.0198 75.9766 50.0563 76.0833 50.0563 76.2031L49.7828 83.0156L48.0406 83.1562L48.0094 77.1641C47.9469 77.1432 47.8297 77.1328 47.6578 77.1328C47.2516 77.1328 46.8948 77.1901 46.5875 77.3047L46.0406 77.5078L45.7985 83.0156L44.1188 83.1562L44.0875 77.1641C44.025 77.1432 43.9078 77.1328 43.736 77.1328C43.2985 77.1328 42.9261 77.1901 42.6188 77.3047L42.0875 77.4922L41.8766 82.9531L40.1656 83.0625L40.025 75.5312ZM61.586 77.7969C61.586 77.099 61.6589 76.6953 61.8047 76.5859C61.9505 76.4766 62.1146 76.3672 62.2969 76.2578C62.4792 76.1432 62.6797 76.0312 62.8985 75.9219C63.1172 75.8125 63.3438 75.7083 63.5781 75.6094C63.8177 75.5104 64.0521 75.4219 64.2813 75.3438C64.7708 75.1771 65.1354 75.0938 65.375 75.0938C65.6198 75.0938 65.8177 75.1068 65.9688 75.1328C66.1198 75.1536 66.2578 75.1901 66.3828 75.2422C66.6693 75.362 66.8307 75.5365 66.8672 75.7656C67.0391 76.8542 67.125 78.151 67.125 79.6562V80.1172L63.3828 80.1641V81.1797C63.7891 81.2786 64.2735 81.3698 64.836 81.4531L66.1797 81.6719C66.5235 81.724 66.875 81.7839 67.2344 81.8516L66.7735 83.5625C65.3412 83.3385 63.8203 82.9766 62.211 82.4766C61.8412 82.3568 61.6511 82.1406 61.6406 81.8281L61.586 77.7969ZM65.3672 78.4375C65.3672 77.9479 65.3177 77.4323 65.2188 76.8906C65.0104 76.8906 64.8438 76.901 64.7188 76.9219C64.5938 76.9427 64.4688 76.9714 64.3438 77.0078C64.2188 77.0443 64.0912 77.0859 63.961 77.1328C63.6537 77.2422 63.4505 77.3359 63.3516 77.4141V78.8203L65.3672 78.6016V78.4375Z" fill="black"/>
<path d="M15.7432 102.211C15.7432 107.31 16.0076 111.732 16.5366 115.478L22.7891 115.16C23.9316 110.632 24.5029 106.21 24.5029 101.894C24.5029 100.159 24.3866 98.6139 24.1538 97.2598C22.8843 96.625 18.3986 96.3076 10.6968 96.3076H9.07812C8.63379 96.3076 8.14714 96.3288 7.61816 96.3711L8.98291 89.0078C9.34261 88.9867 9.67057 88.9655 9.9668 88.9443C10.2842 88.902 10.6016 88.8809 10.9189 88.8809L11.8711 88.8174C12.1885 88.8174 13.0771 88.8174 14.5371 88.8174C18.7266 88.8174 23.318 89.3781 28.3115 90.4995C29.8984 90.9015 30.8717 91.6104 31.2314 92.626C31.7816 94.1917 32.0566 96.7414 32.0566 100.275C32.0566 106.728 31.0728 112.97 29.105 119C28.9357 119.551 28.7347 120.016 28.502 120.397C28.2904 120.778 27.9095 121.021 27.3594 121.127C26.8092 121.254 26.1639 121.37 25.4233 121.476C24.6828 121.582 23.9528 121.677 23.2334 121.762C21.6676 121.91 20.5885 121.984 19.9961 121.984C19.4036 121.984 18.7689 121.973 18.0918 121.952C17.4147 121.952 16.6742 121.931 15.8701 121.889C13.7542 121.783 12.326 121.592 11.5854 121.317C10.8449 121.063 10.3371 120.619 10.062 119.984C9.80811 119.35 9.5542 118.334 9.30029 116.938C8.70785 113.679 8.41162 109.966 8.41162 105.797C8.41162 104.21 8.45394 102.634 8.53857 101.068L15.7432 99.6401V102.211ZM39.769 90.6582L46.5293 89.8013L47.6401 94.6255L53.2261 89.8013H61.0337C61.4357 89.8013 61.9964 90.1081 62.7158 90.7217C63.9219 91.7161 64.5249 92.6048 64.5249 93.3877L63.4141 121.063L56.3364 121.635L56.2095 97.1328C55.9556 97.0482 55.6064 97.0059 55.1621 97.0059C54.7178 97.0059 54.3052 97.027 53.9243 97.0693C53.5646 97.1117 53.1732 97.1751 52.75 97.2598C51.7555 97.429 50.9409 97.63 50.3062 97.8628L47.9575 98.7197L47.1006 120.746L40.3403 121.254L39.769 90.6582Z" fill="black"/>
<path d="M36.061 49.5758C41.3768 30.3069 45.9215 20.0447 62.3033 5.26338" stroke="black" stroke-width="4" stroke-linecap="round" stroke-linejoin="round"/>
</svg>
